# xmcd
#
# Track frame offsets:
#	150
#	16303
#	26519
#	39452
#	52150
#	66683
#	82038
#	100140
#	115826
#	129500
#	146436
#	156585
#	173181
#	192935
#	203764
#	213803
#	226775
#	236645
#	248702
#	262083
#	273629
#	284769
#	295477
#	308125
#	320272
#
# Disc length: 4408 seconds
#
# Revision: 1
# Processed by: cddbd v1.5.2PL0 Copyright (c) Steve Scherf et al.
# Submitted via: audiograbber 1.83.01
#
DISCID=7f113619
DTITLE=John Lee Hooker - , CD2- The Country Blues Of John Lee Hooker - Travelin
DTITLE='
DYEAR=1959
DGENRE=Blues
TTITLE0=Black Snake
TTITLE1=How Long Blues
TTITLE2=Wobblin' Baby
TTITLE3=She's Long, She's Tall, She Weeps Like A Willow Tree
TTITLE4=Pea Vine Special
TTITLE5=Tupelo Blues
TTITLE6=I'm Prison Bound
TTITLE7=I Rowed A Little Boat
TTITLE8=Water Boy
TTITLE9=Church Bell Tone
TTITLE10=Bundle Up And Go
TTITLE11=Good Mornin', Lil' School Girl
TTITLE12=Behind The Plow
TTITLE13=No Shoes
TTITLE14=I Wanna Walk
TTITLE15=Canal Street Blues
TTITLE16=Run On
TTITLE17=I'm A Stranger
TTITLE18=Whiskey And Wimmen
TTITLE19=Solid Sender
TTITLE20=Sunny Land
TTITLE21=Goin' To California
TTITLE22=I Can't Believe
TTITLE23=I'll Know Tonight
TTITLE24=Dusty Road
EXTD=Track 1-13: The Country Blues Of John Lee Hooker\nTrack 14-25: Travelin'
EXTT0=
EXTT1=
EXTT2=
EXTT3=
EXTT4=
EXTT5=
EXTT6=
EXTT7=
EXTT8=
EXTT9=
EXTT10=
EXTT11=
EXTT12=
EXTT13=
EXTT14=
EXTT15=
EXTT16=
EXTT17=
EXTT18=
EXTT19=
EXTT20=
EXTT21=
EXTT22=
EXTT23=
EXTT24=
PLAYORDER=
